<?xml version="1.0" encoding="UTF-8"?>
<svg version="1.1" xmlns="http://www.w3.org/2000/svg" width="200" height="200">
<path d="M0 0 C66 0 132 0 200 0 C200 66 200 132 200 200 C134 200 68 200 0 200 C0 134 0 68 0 0 Z " fill="#FEFEFE" transform="translate(0,0)"/>
<path d="M0 0 C66 0 132 0 200 0 C200 39.6 200 79.2 200 120 C196 120 196 120 194 119 C194.7425 118.01 194.7425 118.01 195.5 117 C197.38450705 113.2309859 197.80402874 110.09039864 197 106 C194.33475178 99.87121665 188.93615169 95.73489811 183 93 C177.44898682 91.23058883 171.72537966 90.05157316 166 89 C165.08790771 88.82275391 164.17581543 88.64550781 163.23608398 88.46289062 C159.55504617 87.93635364 155.94399326 87.83839248 152.234375 87.83203125 C151.11934853 87.825951 151.11934853 87.825951 149.98179626 87.81974792 C147.57115358 87.81031026 145.16065864 87.81035069 142.75 87.8125 C141.93085114 87.8117749 141.11170227 87.8110498 140.26773071 87.81030273 C125.76349139 87.81171977 111.4389286 88.55996438 97 90 C97.33 85.71 97.66 81.42 98 77 C96.68 77 95.36 77 94 77 C93.93941406 77.92683594 93.87882812 78.85367188 93.81640625 79.80859375 C93.69072266 81.60490234 93.69072266 81.60490234 93.5625 83.4375 C93.44068359 85.22994141 93.44068359 85.22994141 93.31640625 87.05859375 C93 90 93 90 92 91 C90.42662804 91.27409421 88.84326724 91.49134334 87.2578125 91.68359375 C85.78054687 91.86825195 85.78054687 91.86825195 84.2734375 92.05664062 C82.71496094 92.24516602 82.71496094 92.24516602 81.125 92.4375 C74.18512615 93.28262639 67.32482199 94.23951803 60.46826172 95.61743164 C57.93898329 96.00945729 55.55519288 96.06597916 53 96 C52.61666504 95.15703369 52.23333008 94.31406738 51.83837891 93.44555664 C50.41585713 90.32536007 48.98772102 87.2078659 47.55566406 84.09204102 C46.93652094 82.74184774 46.3196476 81.39061127 45.70507812 80.03833008 C44.82232965 78.09699533 43.9315397 76.15953403 43.0390625 74.22265625 C42.50490723 73.05484619 41.97075195 71.88703613 41.42041016 70.68383789 C40.27833128 67.89693913 40.27833128 67.89693913 38 67 C37.73574219 67.84925049 37.47148438 68.69850098 37.19921875 69.57348633 C35.95339948 73.13315113 34.45464291 76.42978348 32.8125 79.82421875 C32.50932861 80.45229935 32.20615723 81.08037994 31.89379883 81.72749329 C31.25678619 83.04516459 30.6180064 84.36198293 29.97753906 85.67797852 C28.9987492 87.69007126 28.02631354 89.70514284 27.0546875 91.72070312 C22.28356456 101.57465316 22.28356456 101.57465316 20 105 C16.0625 105.625 16.0625 105.625 11 106 C5.555 106.495 5.555 106.495 0 107 C0 71.69 0 36.38 0 0 Z " fill="#FEFEFE" transform="translate(0,0)"/>
<path d="M0 0 C3 1 3 1 4.44213867 3.46850586 C4.9291626 4.53979736 5.41618652 5.61108887 5.91796875 6.71484375 C6.44970703 7.87564453 6.98144531 9.03644531 7.52929688 10.23242188 C7.8012085 10.84013428 8.07312012 11.44784668 8.35327148 12.07397461 C9.1848039 13.93147737 10.03134899 15.78151981 10.88085938 17.63085938 C15 26.69900412 15 26.69900412 15 29 C15.54188965 28.88930176 16.0837793 28.77860352 16.64208984 28.66455078 C29.06116932 26.15144584 41.3824116 24.1708629 54 23 C54.66 18.71 55.32 14.42 56 10 C57.32 10 58.64 10 60 10 C60.0772418 14.55726628 59.99296412 18.53557076 59 23 C59.93005859 22.80083984 59.93005859 22.80083984 60.87890625 22.59765625 C74.12422271 19.95630493 87.59850863 19.79302978 101.06079102 19.75976562 C103.43215546 19.75002196 105.80266361 19.71883158 108.17382812 19.6875 C125.60744942 19.56878111 142.15041808 21.59734068 156 33 C158.93344228 36.2826616 160.22058533 38.66907267 160.5 43 C160.23902429 47.28163277 158.87965209 49.7603914 156 53 C140.38671846 65.81286495 118.10328048 66.49760065 98.9375 66.1875 C97.28061141 66.17239456 95.62370917 66.15871672 93.96679688 66.14648438 C89.977516 66.11401434 85.98891752 66.06257251 82 66 C82 65.67 82 65.34 82 65 C82.71430176 64.95512451 83.42860352 64.91024902 84.16455078 64.86401367 C112.98991069 64.22650559 112.98991069 64.22650559 138.1875 52.375 C141.31381455 48.27844991 142.62467653 46.20563779 142 41 C139.80790825 37.55528439 137.81434921 35.49849433 134 34 C134.33 34.66 134.66 35.32 135 36 C136.26349293 39.79047879 136.76620943 43.04923263 136 47 C133.39207726 50.7143142 131.7734254 51.79997619 127.375 52.9375 C124 53 124 53 121 51 C119.03177114 52.96822886 119.33751619 56.34808709 119 59 C118.01 59 117.02 59 116 59 C116 55.04 116 51.08 116 47 C115.01 47 114.02 47 113 47 C112.62875 47.928125 112.62875 47.928125 112.25 48.875 C110.7091547 51.49443701 109.91019654 52.13480643 107 53 C103.5 52.6875 103.5 52.6875 100 52 C99.236875 51.855625 98.47375 51.71125 97.6875 51.5625 C96 51 96 51 94 49 C92.96875 49.66 91.9375 50.32 90.875 51 C87.42509252 52.97237135 85.01726441 53.44636271 81 53 C80.29875 52.79375 79.5975 52.5875 78.875 52.375 C76.94609291 51.78059688 76.94609291 51.78059688 75.20800781 52.97802734 C72.51092809 54.2263661 70.75182527 54.14836193 67.796875 53.9765625 C66.8171875 53.925 65.8375 53.8734375 64.828125 53.8203125 C63.30445312 53.72363281 63.30445312 53.72363281 61.75 53.625 C60.203125 53.53992188 60.203125 53.53992188 58.625 53.453125 C56.08260795 53.311881 53.54123762 53.16049254 51 53 C51.96355353 36.29157175 51.96355353 36.29157175 53 28 C52.01 28 51.02 28 50 28 C50 28.66 50 29.32 50 30 C48.02 30.33 46.04 30.66 44 31 C44.99 32.98 44.99 32.98 46 35 C44.515 35.495 44.515 35.495 43 36 C41.33889835 38.16029281 39.81056857 40.2950884 38.3125 42.5625 C37.89677734 43.17802734 37.48105469 43.79355469 37.05273438 44.42773438 C36.02806838 45.94706671 35.01309322 47.47292657 34 49 C37.3 49.33 40.6 49.66 44 50 C44 50.66 44 51.32 44 52 C36.08 52.33 28.16 52.66 20 53 C19.28714844 51.44152344 18.57429688 49.88304687 17.83984375 48.27734375 C16.87244379 46.16404054 15.90499244 44.05076087 14.9375 41.9375 C14.18956177 40.30240479 14.18956177 40.30240479 13.42651367 38.63427734 C11.20864662 33.79184477 8.98743678 28.95191574 6.7109375 24.13671875 C6.38488525 23.44650635 6.05883301 22.75629395 5.72290039 22.04516602 C4.86677163 20.23946671 4.00581358 18.43605935 3.14453125 16.6328125 C2 14 2 14 2 12 C1.34 12 0.68 12 0 12 C-0.50466797 13.73056641 -0.50466797 13.73056641 -1.01953125 15.49609375 C-3.51831752 22.99245256 -7.20587588 29.9869934 -10.6875 37.0625 C-11.39699693 38.51472366 -12.1059856 39.96719574 -12.81445312 41.41992188 C-14.53712057 44.94950692 -16.26663763 48.47565569 -18 52 C-19.98 52 -21.96 52 -24 52 C-22.70367924 47.88220793 -21.16744848 44.05530183 -19.27734375 40.17578125 C-18.74262451 39.07274658 -18.20790527 37.96971191 -17.65698242 36.83325195 C-16.80583862 35.09047974 -16.80583862 35.09047974 -15.9375 33.3125 C-15.0585022 31.50245908 -14.18084962 29.69177012 -13.30329895 27.88102722 C-12.71596316 26.6692538 -12.12822545 25.45767511 -11.54008484 24.24629211 C-8.88939613 18.78394998 -6.28036132 13.3024788 -3.6875 7.8125 C-3.30907959 7.01175049 -2.93065918 6.21100098 -2.54077148 5.38598633 C-1.69306744 3.59102581 -0.84639345 1.79557888 0 0 Z " fill="#F7F9F3" transform="translate(38,67)"/>
<path d="M0 0 C3 1 3 1 4.44213867 3.46850586 C4.9291626 4.53979736 5.41618652 5.61108887 5.91796875 6.71484375 C6.44970703 7.87564453 6.98144531 9.03644531 7.52929688 10.23242188 C7.8012085 10.84013428 8.07312012 11.44784668 8.35327148 12.07397461 C9.1848039 13.93147737 10.03134899 15.78151981 10.88085938 17.63085938 C15 26.69900412 15 26.69900412 15 29 C15.54188965 28.88930176 16.0837793 28.77860352 16.64208984 28.66455078 C29.06116932 26.15144584 41.3824116 24.1708629 54 23 C54.66 18.71 55.32 14.42 56 10 C57.32 10 58.64 10 60 10 C59.51285497 22.81695376 57.96920607 35.33020243 56 48 C61.94 48 67.88 48 74 48 C74 49.32 74 50.64 74 52 C66.41 52 58.82 52 51 52 C51.50620238 43.97307657 52.01939936 35.98489089 53 28 C52.01 28 51.02 28 50 28 C50 28.66 50 29.32 50 30 C48.02 30.33 46.04 30.66 44 31 C44.99 32.98 44.99 32.98 46 35 C44.515 35.495 44.515 35.495 43 36 C41.33889835 38.16029281 39.81056857 40.2950884 38.3125 42.5625 C37.89677734 43.17802734 37.48105469 43.79355469 37.05273438 44.42773438 C36.02806838 45.94706671 35.01309322 47.47292657 34 49 C37.3 49.33 40.6 49.66 44 50 C44 50.66 44 51.32 44 52 C36.08 52.33 28.16 52.66 20 53 C19.28714844 51.44152344 18.57429688 49.88304687 17.83984375 48.27734375 C16.87244379 46.16404054 15.90499244 44.05076087 14.9375 41.9375 C14.18956177 40.30240479 14.18956177 40.30240479 13.42651367 38.63427734 C11.20864662 33.79184477 8.98743678 28.95191574 6.7109375 24.13671875 C6.38488525 23.44650635 6.05883301 22.75629395 5.72290039 22.04516602 C4.86677163 20.23946671 4.00581358 18.43605935 3.14453125 16.6328125 C2 14 2 14 2 12 C1.34 12 0.68 12 0 12 C-0.50466797 13.73056641 -0.50466797 13.73056641 -1.01953125 15.49609375 C-3.51831752 22.99245256 -7.20587588 29.9869934 -10.6875 37.0625 C-11.39699693 38.51472366 -12.1059856 39.96719574 -12.81445312 41.41992188 C-14.53712057 44.94950692 -16.26663763 48.47565569 -18 52 C-19.98 52 -21.96 52 -24 52 C-22.70367924 47.88220793 -21.16744848 44.05530183 -19.27734375 40.17578125 C-18.74262451 39.07274658 -18.20790527 37.96971191 -17.65698242 36.83325195 C-16.80583862 35.09047974 -16.80583862 35.09047974 -15.9375 33.3125 C-15.0585022 31.50245908 -14.18084962 29.69177012 -13.30329895 27.88102722 C-12.71596316 26.6692538 -12.12822545 25.45767511 -11.54008484 24.24629211 C-8.88939613 18.78394998 -6.28036132 13.3024788 -3.6875 7.8125 C-3.30907959 7.01175049 -2.93065918 6.21100098 -2.54077148 5.38598633 C-1.69306744 3.59102581 -0.84639345 1.79557888 0 0 Z " fill="#F9EEF2" transform="translate(38,67)"/>
<path d="M0 0 C2.37136444 -0.00974366 4.7418726 -0.04093404 7.11303711 -0.07226562 C24.54665841 -0.19098452 41.08962706 1.83757506 54.93920898 13.24023438 C57.87265127 16.52289597 59.15979432 18.90930705 59.43920898 23.24023438 C59.17823327 27.52186715 57.81886108 30.00062577 54.93920898 33.24023438 C39.32592745 46.05309932 17.04248946 46.73783503 -2.12329102 46.42773438 C-3.78017961 46.41262893 -5.43708185 46.3989511 -7.09399414 46.38671875 C-11.08327501 46.35424872 -15.0718735 46.30280689 -19.06079102 46.24023438 C-19.06079102 45.91023438 -19.06079102 45.58023438 -19.06079102 45.24023438 C-18.34648926 45.19535889 -17.6321875 45.1504834 -16.89624023 45.10424805 C11.92911967 44.46673996 11.92911967 44.46673996 37.12670898 32.61523438 C40.25302353 28.51868428 41.56388552 26.44587216 40.93920898 21.24023438 C37.92938911 15.36391939 31.89176892 13.26396518 25.93920898 11.24023438 C14.10363809 8.18842774 1.96523724 7.07001722 -10.22485352 7.14257812 C-11.60198013 7.14470055 -11.60198013 7.14470055 -13.00692749 7.14686584 C-15.8999171 7.15240218 -18.79282535 7.16494219 -21.68579102 7.17773438 C-23.66365447 7.18275762 -25.64151915 7.18731908 -27.61938477 7.19140625 C-32.43321754 7.20235064 -37.24699055 7.21957019 -42.06079102 7.24023438 C-42.06079102 5.92023438 -42.06079102 4.60023437 -42.06079102 3.24023438 C-28.19760644 0.27161065 -14.12280485 0.03489625 0 0 Z " fill="#FBB813" transform="translate(139.060791015625,86.759765625)"/>
<path d="M0 0 C2.37136444 -0.00974366 4.7418726 -0.04093404 7.11303711 -0.07226562 C19.91287565 -0.15984892 33.17603806 0.71874598 44.93920898 6.24023438 C45.43420898 7.23023437 45.43420898 7.23023437 45.93920898 8.24023438 C44.61920898 8.24023438 43.29920898 8.24023438 41.93920898 8.24023438 C41.27920898 9.23023437 40.61920898 10.22023438 39.93920898 11.24023438 C39.27920898 11.24023438 38.61920898 11.24023438 37.93920898 11.24023438 C36.94920898 10.25023438 36.94920898 10.25023438 35.93920898 9.24023438 C35.93920898 10.23023437 35.93920898 11.22023438 35.93920898 12.24023438 C36.92920898 12.90023437 37.91920898 13.56023437 38.93920898 14.24023438 C38.60920898 15.23023437 38.27920898 16.22023438 37.93920898 17.24023438 C37.25858398 16.84191406 36.57795898 16.44359375 35.87670898 16.03320312 C21.72677007 8.29965938 5.69087702 7.04784053 -10.22485352 7.14257812 C-11.60198013 7.14470055 -11.60198013 7.14470055 -13.00692749 7.14686584 C-15.8999171 7.15240218 -18.79282535 7.16494219 -21.68579102 7.17773438 C-23.66365447 7.18275762 -25.64151915 7.18731908 -27.61938477 7.19140625 C-32.43321754 7.20235064 -37.24699055 7.21957019 -42.06079102 7.24023438 C-42.06079102 5.92023438 -42.06079102 4.60023437 -42.06079102 3.24023438 C-28.19760644 0.27161065 -14.12280485 0.03489625 0 0 Z " fill="#F8C714" transform="translate(139.060791015625,86.759765625)"/>
<path d="M0 0 C3 1 3 1 4.51464844 3.73706055 C5.0409082 4.94144775 5.56716797 6.14583496 6.109375 7.38671875 C6.39927307 8.04017776 6.68917114 8.69363678 6.987854 9.36689758 C7.91865147 11.46948976 8.83494897 13.57801329 9.75 15.6875 C10.94815727 18.42277542 12.15260088 21.1552354 13.359375 23.88671875 C13.80561218 24.90135696 13.80561218 24.90135696 14.26086426 25.93649292 C16.81852219 31.70519294 19.62513054 37.32335999 22.52832031 42.92504883 C23.95404323 45.90397718 25.02875632 48.84700705 26 52 C24.02 52 22.04 52 20 52 C18.23852206 48.35698721 16.47876322 44.71314919 14.72045898 41.06860352 C14.12455406 39.83401158 13.52821421 38.59962945 12.93139648 37.36547852 C9.93835965 31.17550578 6.96232755 24.97802248 4.07421875 18.73828125 C3.67162842 17.86856689 3.26903809 16.99885254 2.85424805 16.1027832 C2 14 2 14 2 12 C1.34 12 0.68 12 0 12 C-0.50466797 13.73056641 -0.50466797 13.73056641 -1.01953125 15.49609375 C-3.51831752 22.99245256 -7.20587588 29.9869934 -10.6875 37.0625 C-11.39699693 38.51472366 -12.1059856 39.96719574 -12.81445312 41.41992188 C-14.53712057 44.94950692 -16.26663763 48.47565569 -18 52 C-19.98 52 -21.96 52 -24 52 C-22.70367924 47.88220793 -21.16744848 44.05530183 -19.27734375 40.17578125 C-18.74262451 39.07274658 -18.20790527 37.96971191 -17.65698242 36.83325195 C-16.80583862 35.09047974 -16.80583862 35.09047974 -15.9375 33.3125 C-15.0585022 31.50245908 -14.18084962 29.69177012 -13.30329895 27.88102722 C-12.71596316 26.6692538 -12.12822545 25.45767511 -11.54008484 24.24629211 C-8.88939613 18.78394998 -6.28036132 13.3024788 -3.6875 7.8125 C-3.30907959 7.01175049 -2.93065918 6.21100098 -2.54077148 5.38598633 C-1.69306744 3.59102581 -0.84639345 1.79557888 0 0 Z " fill="#882846" transform="translate(38,67)"/>
<path d="M0 0 C0.5775 0.433125 1.155 0.86625 1.75 1.3125 C2.74 1.6425 3.73 1.9725 4.75 2.3125 C4.75 4.2925 4.75 6.2725 4.75 8.3125 C-13.3571989 17.20776941 -30.06390833 19.64689613 -50 19.4375 C-51.67968213 19.42744397 -53.35937012 19.41832278 -55.0390625 19.41015625 C-59.10952282 19.38836468 -63.17969468 19.35398163 -67.25 19.3125 C-67.25 18.9825 -67.25 18.6525 -67.25 18.3125 C-66.53569824 18.26762451 -65.82139648 18.22274902 -65.08544922 18.17651367 C-36.51158847 17.39716246 -36.51158847 17.39716246 -11.375 5.75 C-10.323125 4.5434375 -10.323125 4.5434375 -9.25 3.3125 C-3.43104231 -1.04837404 -3.43104231 -1.04837404 0 0 Z " fill="#F8AC19" transform="translate(187.25,113.6875)"/>
<path d="M0 0 C2.37136444 -0.00974366 4.7418726 -0.04093404 7.11303711 -0.07226562 C19.91287565 -0.15984892 33.17603806 0.71874598 44.93920898 6.24023438 C45.43420898 7.23023437 45.43420898 7.23023437 45.93920898 8.24023438 C44.61920898 8.24023438 43.29920898 8.24023438 41.93920898 8.24023438 C41.27920898 9.23023437 40.61920898 10.22023438 39.93920898 11.24023438 C39.27920898 11.24023438 38.61920898 11.24023438 37.93920898 11.24023438 C36.94920898 10.25023438 36.94920898 10.25023438 35.93920898 9.24023438 C35.93920898 10.23023437 35.93920898 11.22023438 35.93920898 12.24023438 C36.92920898 12.90023437 37.91920898 13.56023437 38.93920898 14.24023438 C38.60920898 15.23023437 38.27920898 16.22023438 37.93920898 17.24023438 C37.25858398 16.84191406 36.57795898 16.44359375 35.87670898 16.03320312 C28.95604864 12.25076775 22.87675507 10.30873755 15.10913086 9.1784668 C13.37686027 8.91994111 11.65608165 8.58656539 9.93920898 8.24023438 C9.44420898 7.25023438 9.44420898 7.25023438 8.93920898 6.24023438 C14.87920898 5.74523437 14.87920898 5.74523437 20.93920898 5.24023438 C20.93920898 4.58023438 20.93920898 3.92023438 20.93920898 3.24023438 C15.06247044 2.21896111 9.36844103 2.11015472 3.41186523 2.14257812 C2.42294785 2.14399307 1.43403046 2.14540802 0.41514587 2.14686584 C-2.72269806 2.15243349 -5.86046889 2.16497998 -8.99829102 2.17773438 C-11.13435769 2.18275356 -13.27042549 2.18731573 -15.40649414 2.19140625 C-20.62461776 2.20239232 -25.84269916 2.21909802 -31.06079102 2.24023438 C-31.06079102 1.91023438 -31.06079102 1.58023438 -31.06079102 1.24023438 C-20.7000882 0.41406799 -10.39240489 0.02567875 0 0 Z " fill="#F5CC24" transform="translate(139.060791015625,86.759765625)"/>
<path d="M0 0 C3.00890835 2.5575721 3.86893157 4.10124505 4.4375 8 C3.93911153 11.41752096 3.11569184 13.27982477 1 16 C-2.20528701 18.32106991 -5.12159743 18.55405751 -9 18 C-11.875 15.9375 -11.875 15.9375 -14 13 C-14.69151325 8.69725091 -14.51557405 6.79054688 -12.125 3.125 C-8.5544364 -0.4455636 -4.90441139 -0.85294111 0 0 Z " fill="#EBF2F6" transform="translate(128,102)"/>
<path d="M0 0 C1.32 0 2.64 0 4 0 C3.51285497 12.81695376 1.96920607 25.33020243 0 38 C5.94 38 11.88 38 18 38 C18 39.32 18 40.64 18 42 C10.41 42 2.82 42 -5 42 C-4.39119843 27.84536342 -2.19307607 13.98600352 0 0 Z " fill="#305A88" transform="translate(94,77)"/>
<path d="M0 0 C0.66 0 1.32 0 2 0 C3.50310854 3.14435738 5.00196342 6.29072347 6.5 9.4375 C6.92925781 10.33533203 7.35851562 11.23316406 7.80078125 12.15820312 C8.40986328 13.43920898 8.40986328 13.43920898 9.03125 14.74609375 C9.40830078 15.53685303 9.78535156 16.3276123 10.17382812 17.14233398 C11 19 11 19 11 20 C8.25071558 20.50423557 5.50068857 21.00353426 2.75 21.5 C1.97269531 21.64308594 1.19539063 21.78617188 0.39453125 21.93359375 C-0.35957031 22.06894531 -1.11367188 22.20429687 -1.890625 22.34375 C-2.58188477 22.46943359 -3.27314453 22.59511719 -3.98535156 22.72460938 C-6 23 -6 23 -10 23 C-8.41980408 17.7936703 -6.22115005 13.01626689 -3.875 8.125 C-3.50246094 7.34125 -3.12992188 6.5575 -2.74609375 5.75 C-1.83381003 3.83186501 -0.91733016 1.91572671 0 0 Z " fill="#FBF2F1" transform="translate(38,79)"/>
<path d="M0 0 C4.40595131 1.3462629 6.58291088 3.06103995 9 7 C9.75474554 10.85758834 9.12468221 13.28188257 7.125 16.5625 C2.05418547 23.05142368 -7.21817542 26.06986241 -15 28 C-18.0625 28.1875 -18.0625 28.1875 -20 28 C-17.35261084 26.5393715 -16.10551666 26 -13 26 C-13.350625 25.46375 -13.70125 24.9275 -14.0625 24.375 C-15.28924249 21.26725237 -14.72856431 19.20568297 -14 16 C-13.2265625 16.5259375 -13.2265625 16.5259375 -12.4375 17.0625 C-8.93420158 18.40992247 -6.60537331 17.90134333 -3 17 C-0.41666667 15.58333333 -0.41666667 15.58333333 1 13 C1.36309868 8.42495669 1.11623182 4.46492728 0 0 Z " fill="#F7F8ED" transform="translate(172,101)"/>
<path d="M0 0 C0 1.98 0 3.96 0 6 C-0.495 5.01 -0.495 5.01 -1 4 C-1.99 4 -2.98 4 -4 4 C-4 4.66 -4 5.32 -4 6 C-5.98 6.33 -7.96 6.66 -10 7 C-10 7.66 -10 8.32 -10 9 C-28.82004556 9.18451025 -28.82004556 9.18451025 -38 8 C-38 7.01 -38 6.02 -38 5 C-34.87669547 4.34578818 -31.75109398 3.70323841 -28.625 3.0625 C-27.75488281 2.88009766 -26.88476562 2.69769531 -25.98828125 2.50976562 C-17.32017532 0.74404034 -8.84501201 -0.16379652 0 0 Z " fill="#FDFCF5" transform="translate(92,91)"/>
<path d="M0 0 C0.8264502 0.06566162 1.65290039 0.13132324 2.50439453 0.19897461 C11.62601877 0.89120101 20.73081111 1.28880249 29.875 1.5625 C31.25651843 1.60586532 32.63802893 1.64948404 34.01953125 1.69335938 C37.34628541 1.79804744 40.6730955 1.90022495 44 2 C44 2.33 44 2.66 44 3 C50.6 3.33 57.2 3.66 64 4 C61.11474041 6.88525959 59.02998412 6.27406898 54.9921875 6.30078125 C54.28232697 6.30619934 53.57246643 6.31161743 52.84109497 6.31719971 C50.51887841 6.32874126 48.19721908 6.32228497 45.875 6.3125 C45.08899414 6.31200653 44.30298828 6.31151306 43.49316406 6.31100464 C12.75533634 6.25177878 12.75533634 6.25177878 0 2 C0 1.34 0 0.68 0 0 Z " fill="#F6E6C2" transform="translate(92,129)"/>
<path d="M0 0 C1.9375 1.125 1.9375 1.125 3 3 C3.5 5.875 3.5 5.875 3 9 C0.68262395 12.04569423 -0.77825913 13.73181298 -4.5625 14.5625 C-7.90209141 13.79182506 -9.09619782 12.85570327 -11 10 C-10.93913078 6.53045455 -10.6274029 4.08052722 -8.875 1.0625 C-5.86086748 -0.64550843 -3.37911601 -0.36204814 0 0 Z " fill="#ECF3F7" transform="translate(169,104)"/>
<path d="M0 0 C0 0.66 0 1.32 0 2 C-0.99 2 -1.98 2 -3 2 C-3 2.99 -3 3.98 -3 5 C-1.02 5 0.96 5 3 5 C-7.41488927 11.94325951 -24.04099654 10.38200687 -36.0625 10.1875 C-37.71938859 10.17239456 -39.37629083 10.15871672 -41.03320312 10.14648438 C-45.022484 10.11401434 -49.01108248 10.06257251 -53 10 C-53 9.67 -53 9.34 -53 9 C-51.92854736 8.93268677 -51.92854736 8.93268677 -50.83544922 8.86401367 C-34.61180173 7.8145865 -19.36615839 6.79550931 -4.109375 0.76953125 C-2 0 -2 0 0 0 Z " fill="#E0A452" transform="translate(173,123)"/>
<path d="M0 0 C1.875 1.125 1.875 1.125 3 3 C3.5 5.875 3.5 5.875 3 9 C0.875 11.9375 0.875 11.9375 -2 14 C-5.75470151 13.9263784 -7.32841161 13.67158839 -10 11 C-10.43244601 7.10798594 -10.57846465 4.86769698 -8.375 1.5625 C-5.31881548 -0.44814771 -3.59350675 -0.53520313 0 0 Z " fill="#F4F9FA" transform="translate(147,104)"/>
<path d="M0 0 C1.32 0.33 2.64 0.66 4 1 C4.33 0.67 4.66 0.34 5 0 C12.03846154 -0.57692308 12.03846154 -0.57692308 15.5 1.5 C17.59286882 4.9881147 17.88218737 8.09980319 17 12 C14.39207726 15.7143142 12.7734254 16.79997619 8.375 17.9375 C5 18 5 18 2 16 C0.03177114 17.96822886 0.33751619 21.34808709 0 24 C-0.99 24 -1.98 24 -3 24 C-2.01 16.08 -1.02 8.16 0 0 Z M2.5625 4.1875 C0.86512847 7.24276875 0.29994165 8.58721554 1 12 C2.43661311 14.52006844 2.43661311 14.52006844 5 16 C8.78814147 16 11.03929943 15.8367392 13.9375 13.3125 C15.3174949 10.30898169 15.41747718 8.27023793 15 5 C14.06402685 2.98048938 14.06402685 2.98048938 12 2 C7.70846876 1.37577727 5.8469795 1.2398902 2.5625 4.1875 Z " fill="#234D77" transform="translate(157,102)"/>
<path d="M0 0 C0.33 1.32 0.66 2.64 1 4 C1.692146 3.69304199 2.38429199 3.38608398 3.09741211 3.06982422 C15.4661422 -1.48899278 29.98833122 -0.24210706 42.9375 -0.125 C44.8925735 -0.11494154 46.84765205 -0.1058208 48.80273438 -0.09765625 C53.53528397 -0.07588963 58.26758419 -0.04152082 63 0 C63 0.66 63 1.32 63 2 C61.52297607 2.029729 61.52297607 2.029729 60.01611328 2.06005859 C39.94873662 2.47625651 19.99549394 3.13635811 0 5 C0 3.35 0 1.7 0 0 Z " fill="#FBF7C2" transform="translate(97,85)"/>
<path d="M0 0 C2.5 1.5 2.5 1.5 4 4 C4.5831964 8.59267166 4.59645107 10.83194999 2.5 14.9375 C-0.86935693 17.71721947 -3.66303467 18.40363836 -8 18 C-11 16.625 -11 16.625 -13 14 C-13.71609838 10.84799321 -13.68512756 8.15607944 -13 5 C-9.39690234 -0.51724329 -6.13515775 -0.87645111 0 0 Z M-9.375 3.5625 C-11.61372366 6.92058549 -11.57491549 9.04745604 -11 13 C-9.5 15.16666667 -9.5 15.16666667 -7 16 C-3.53871253 15.92936148 -1.71974003 15.64776603 0.875 13.3125 C2.33690996 10.30746287 2.42168789 8.30322178 2 5 C1 3 1 3 -1 2 C-4.59350675 1.46479687 -6.31881548 1.55185229 -9.375 3.5625 Z " fill="#2D547B" transform="translate(148,102)"/>
<path d="M0 0 C4.95 0 9.9 0 15 0 C8.375 10.5 8.375 10.5 5 15 C8.3 15.33 11.6 15.66 15 16 C15 16.66 15 17.32 15 18 C9.72 18 4.44 18 -1 18 C1.92170506 12.60608297 5.25024586 7.85763605 9 3 C6.03 2.67 3.06 2.34 0 2 C0 1.34 0 0.68 0 0 Z " fill="#793049" transform="translate(67,101)"/>
<path d="M0 0 C3.00890835 2.5575721 3.86893157 4.10124505 4.4375 8 C3.93911153 11.41752096 3.11569184 13.27982477 1 16 C-2.20528701 18.32106991 -5.12159743 18.55405751 -9 18 C-11.875 15.9375 -11.875 15.9375 -14 13 C-14.69151325 8.69725091 -14.51557405 6.79054688 -12.125 3.125 C-8.5544364 -0.4455636 -4.90441139 -0.85294111 0 0 Z M-10.5 4.0625 C-12.44931249 7.87990362 -12.15426305 9.92160388 -11 14 C-7.73201451 16.178657 -6.79094962 16.72208564 -3 16 C0.02016304 13.47588454 0.02016304 13.47588454 2 10 C1.92718506 6.2136229 1.68929923 4.68929923 -1 2 C-5.20323307 1.45513645 -7.17382359 1.31840446 -10.5 4.0625 Z " fill="#1F4975" transform="translate(128,102)"/>
<path d="M0 0 C6.30719307 0.92065781 9.91921368 1.9977458 14 7 C11.36 6.67 8.72 6.34 6 6 C5.34 7.65 4.68 9.3 4 11 C1.03 10.505 1.03 10.505 -2 10 C-2 9.01 -2 8.02 -2 7 C-3.98 6.34 -5.96 5.68 -8 5 C-7.34 4.67 -6.68 4.34 -6 4 C-5.67 3.01 -5.34 2.02 -5 1 C-4.34 1 -3.68 1 -3 1 C-3 1.99 -3 2.98 -3 4 C-2.34 3.67 -1.68 3.34 -1 3 C-0.67 2.01 -0.34 1.02 0 0 Z " fill="#FAC30E" transform="translate(180,94)"/>
<path d="M0 0 C1.32 0 2.64 0 4 0 C3.57800555 9.47266484 3.06627421 18.71179652 1 28 C-1.22332357 26.25184585 -1.94339313 25.38346589 -2.36328125 22.5390625 C-2.2299197 14.8861615 -1.36044161 7.53101608 0 0 Z " fill="#23486E" transform="translate(94,77)"/>
<path d="M0 0 C0 0.99 0 1.98 0 3 C-1.04454346 3.11593506 -2.08908691 3.23187012 -3.1652832 3.35131836 C-7.04016769 3.78226892 -10.91456009 4.21751125 -14.78881836 4.65405273 C-16.46577043 4.84239958 -18.14285373 5.02958187 -19.82006836 5.21557617 C-22.2306607 5.4831027 -24.64075029 5.75481205 -27.05078125 6.02734375 C-27.80087967 6.10967758 -28.55097809 6.19201141 -29.32380676 6.27684021 C-32.36396701 6.62407168 -35.08720254 7.02906751 -38 8 C-38 7.01 -38 6.02 -38 5 C-34.87669547 4.34578818 -31.75109398 3.70323841 -28.625 3.0625 C-27.75488281 2.88009766 -26.88476562 2.69769531 -25.98828125 2.50976562 C-17.32017532 0.74404034 -8.84501201 -0.16379652 0 0 Z " fill="#E7AF4F" transform="translate(92,91)"/>
<path d="M0 0 C0.93423645 3.01031744 1.04449911 3.86650268 0 7 C0.66 7.33 1.32 7.66 2 8 C2 7.34 2 6.68 2 6 C5.50776784 4.39644899 8.14354879 3.77963136 12 4 C12 4.66 12 5.32 12 6 C5.04205107 9.64154337 -0.11049093 11.64668107 -8 11 C-8 10.01 -8 9.02 -8 8 C-7.01 8 -6.02 8 -5 8 C-4.9175 7.4225 -4.835 6.845 -4.75 6.25 C-3.79468987 3.3840696 -2.21530827 2.0009236 0 0 Z " fill="#F3A32E" transform="translate(178,117)"/>
<path d="M0 0 C0.33 0.66 0.66 1.32 1 2 C14.365 2.495 14.365 2.495 28 3 C28 3.33 28 3.66 28 4 C15.13 4.33 2.26 4.66 -11 5 C-11 3.68 -11 2.36 -11 1 C-7.32589215 -0.17571451 -3.83070817 -0.07366746 0 0 Z " fill="#ECBC3E" transform="translate(108,89)"/>
<path d="M0 0 C0.66 0 1.32 0 2 0 C2 0.66 2 1.32 2 2 C7.94 2 13.88 2 20 2 C20 2.99 20 3.98 20 5 C12.74 5 5.48 5 -2 5 C-1 1 -1 1 0 0 Z " fill="#083C6F" transform="translate(91,114)"/>
<path d="M0 0 C7.26 0 14.52 0 22 0 C21.67 0.99 21.34 1.98 21 3 C17.70298938 4.34807677 14.2645039 4.10070113 10.75 4.0625 C9.67234375 4.05347656 8.5946875 4.04445313 7.484375 4.03515625 C6.66453125 4.02355469 5.8446875 4.01195313 5 4 C4.67 3.34 4.34 2.68 4 2 C2.68 1.34 1.36 0.68 0 0 Z " fill="#FBCD09" transform="translate(139,89)"/>
<path d="M0 0 C-0.33 0.99 -0.66 1.98 -1 3 C-1 2.34 -1 1.68 -1 1 C-1.99 1 -2.98 1 -4 1 C-4 1.66 -4 2.32 -4 3 C-19.345 3.495 -19.345 3.495 -35 4 C-35 3.67 -35 3.34 -35 3 C-30.66749763 2.49262223 -26.33388373 1.99542852 -22 1.5 C-20.77925781 1.35691406 -19.55851562 1.21382813 -18.30078125 1.06640625 C-12.1593321 0.36926878 -6.18121183 -0.18543635 0 0 Z " fill="#FDEAB6" transform="translate(92,94)"/>
<path d="M0 0 C0 0.66 0 1.32 0 2 C-0.99 2 -1.98 2 -3 2 C-3 2.99 -3 3.98 -3 5 C-1.02 5 0.96 5 3 5 C-0.28491373 7.18994248 -1.83095639 7.35277339 -5.6875 7.625 C-7.17830078 7.73714844 -7.17830078 7.73714844 -8.69921875 7.8515625 C-9.45847656 7.90054688 -10.21773437 7.94953125 -11 8 C-11 7.67 -11 7.34 -11 7 C-10.195625 6.87625 -9.39125 6.7525 -8.5625 6.625 C-7.716875 6.41875 -6.87125 6.2125 -6 6 C-5.67 5.34 -5.34 4.68 -5 4 C-5.65226563 4.2165625 -6.30453125 4.433125 -6.9765625 4.65625 C-11.77521132 6.18502308 -15.89921898 7.40269324 -21 7 C-21 6.67 -21 6.34 -21 6 C-19.79601562 5.65066406 -18.59203125 5.30132812 -17.3515625 4.94140625 C-15.7760125 4.48187083 -14.20049325 4.02222994 -12.625 3.5625 C-11.8309375 3.33240234 -11.036875 3.10230469 -10.21875 2.86523438 C-9.45820313 2.64287109 -8.69765625 2.42050781 -7.9140625 2.19140625 C-6.8614624 1.88505249 -6.8614624 1.88505249 -5.78759766 1.57250977 C-0.87761194 0 -0.87761194 0 0 0 Z " fill="#EBAA51" transform="translate(173,123)"/>
<path d="M0 0 C0.99 0 1.98 0 3 0 C3.31563182 5.26053037 2.66590937 8.44573816 0 13 C-1.32 12.67 -2.64 12.34 -4 12 C-4 11.34 -4 10.68 -4 10 C-3.34 10 -2.68 10 -2 10 C-1.93941406 9.36191406 -1.87882812 8.72382812 -1.81640625 8.06640625 C-1.73261719 7.24011719 -1.64882813 6.41382812 -1.5625 5.5625 C-1.48128906 4.73878906 -1.40007813 3.91507812 -1.31640625 3.06640625 C-1 1 -1 1 0 0 Z " fill="#892140" transform="translate(27,91)"/>
<path d="M0 0 C0.66 0 1.32 0 2 0 C2.0272616 2.04159095 2.04651345 4.08328963 2.0625 6.125 C2.07410156 7.26195313 2.08570312 8.39890625 2.09765625 9.5703125 C2.005327 12.8129156 1.61389906 15.81932612 1 19 C-0.5 18 -0.5 18 -2 16 C-2.33190332 13.24520245 -2.18037589 10.79582634 -2 8 C-1.67 7.67 -1.34 7.34 -1 7 C-0.63239269 4.67182036 -0.29758419 2.3381615 0 0 Z " fill="#093E70" transform="translate(94,86)"/>
<path d="M0 0 C3.01656081 3.01656081 3.95463706 4.64276683 4.5 8.9375 C4.29249732 13.15140065 2.69593666 15.74901756 0 19 C-0.66 19.33 -1.32 19.66 -2 20 C-2 18.02 -2 16.04 -2 14 C-1.34 13.67 -0.68 13.34 0 13 C0.66 13.33 1.32 13.66 2 14 C1.855625 13.32453125 1.71125 12.6490625 1.5625 11.953125 C1.376875 11.06109375 1.19125 10.1690625 1 9.25 C0.814375 8.36828125 0.62875 7.4865625 0.4375 6.578125 C0 4 0 4 0 0 Z " fill="#F2C93F" transform="translate(194,101)"/>
<path d="M0 0 C0.99 0.33 1.98 0.66 3 1 C3.60494959 8.13840513 3.60494959 8.13840513 0.9375 11.9375 C-2.50200146 14.35246911 -4.82996421 14.84264016 -9 15 C-9.66 14.67 -10.32 14.34 -11 14 C-11 13.34 -11 12.68 -11 12 C-9.9275 12.0825 -8.855 12.165 -7.75 12.25 C-4.05751395 12.29655773 -4.05751395 12.29655773 -1.5625 10.5 C0.71029038 6.86353539 0.28281164 4.24217465 0 0 Z " fill="#2B4E75" transform="translate(171,105)"/>
<path d="M0 0 C1.20628008 2.33214148 2.1654738 4.49642139 3 7 C-1.94467361 11.19058396 -7.25620144 10.1253514 -13.3125 9.6875 C-14.33923828 9.62626953 -15.36597656 9.56503906 -16.42382812 9.50195312 C-18.95050216 9.34917749 -21.47524687 9.18140607 -24 9 C-24 8.67 -24 8.34 -24 8 C-16.41 8 -8.82 8 -1 8 C-1 6.68 -1 5.36 -1 4 C-1.99 3.67 -2.98 3.34 -4 3 C-2.68 3 -1.36 3 0 3 C0 2.01 0 1.02 0 0 Z " fill="#C6DBEB" transform="translate(113,111)"/>
<path d="M0 0 C1.04449911 3.13349732 0.93423645 3.98968256 0 7 C-0.66 7 -1.32 7 -2 7 C-2 7.66 -2 8.32 -2 9 C-0.68 9.66 0.64 10.32 2 11 C1.01 12.32 0.02 13.64 -1 15 C-2.32 13.68 -3.64 12.36 -5 11 C-3.35 7.37 -1.7 3.74 0 0 Z " fill="#8D3550" transform="translate(25,94)"/>
<path d="M0 0 C0.66 0 1.32 0 2 0 C2.99 2.64 3.98 5.28 5 8 C4.01 8.33 3.02 8.66 2 9 C1.67 10.32 1.34 11.64 1 13 C0.01 10.36 -0.98 7.72 -2 5 C-0.68 5 0.64 5 2 5 C2 4.34 2 3.68 2 3 C1.01 2.67 0.02 2.34 -1 2 C-0.67 1.34 -0.34 0.68 0 0 Z " fill="#89304D" transform="translate(45,81)"/>
<path d="M0 0 C0.66 0.33 1.32 0.66 2 1 C2.47990402 8.07858428 2.47990402 8.07858428 0.4375 12 C-2.80595565 14.66129695 -4.91765377 14.39253329 -9 14 C-8.4225 13.7525 -7.845 13.505 -7.25 13.25 C-4.51630719 11.73128177 -2.90999004 10.50274557 -1 8 C-0.37373548 5.29826383 -0.18564958 2.78474374 0 0 Z " fill="#204670" transform="translate(150,105)"/>
<path d="M0 0 C0.556875 0.495 1.11375 0.99 1.6875 1.5 C4.46145738 3.2993237 5.75193139 3.48721029 9 3 C11.28484306 1.60042803 11.28484306 1.60042803 13 0 C13 1.32 13 2.64 13 4 C9.59575912 6.09491746 6.96585158 6.49573145 3 6 C0.625 4 0.625 4 -1 2 C-0.67 1.34 -0.34 0.68 0 0 Z " fill="#305781" transform="translate(116,114)"/>
<path d="M0 0 C0.99 0.33 1.98 0.66 3 1 C3.22786458 3.01822917 3.45572917 5.03645833 3.68359375 7.0546875 C3.91292961 9.07404316 3.91292961 9.07404316 5 11 C4.01 11 3.02 11 2 11 C1.34 10.34 0.68 9.68 0 9 C-0.99 9 -1.98 9 -3 9 C-2.34 8.01 -1.68 7.02 -1 6 C-0.60986284 4.0103005 -0.26797351 2.00980131 0 0 Z " fill="#D9E8F3" transform="translate(132,107)"/>
<path d="M0 0 C2 1.5 2 1.5 3 3 C2.34 3.66 1.68 4.32 1 5 C0.34 4.34 -0.32 3.68 -1 3 C-5.05261287 2.65509678 -6.54754176 2.69836118 -10 5 C-10.66 4.34 -11.32 3.68 -12 3 C-8.22561516 -0.77438484 -5.06382535 -0.48226908 0 0 Z " fill="#2F5680" transform="translate(148,102)"/>
<path d="M0 0 C1.32 0 2.64 0 4 0 C4 0.66 4 1.32 4 2 C11.92 2 19.84 2 28 2 C28 2.33 28 2.66 28 3 C19.09 3 10.18 3 1 3 C0.67 2.01 0.34 1.02 0 0 Z " fill="#F5BD1D" transform="translate(108,89)"/>
<path d="M0 0 C0.33 0.66 0.66 1.32 1 2 C1.70125 1.855625 2.4025 1.71125 3.125 1.5625 C8.86719815 0.43902645 14.15220515 -0.2206715 20 0 C20 0.33 20 0.66 20 1 C17.25071558 1.50423557 14.50068857 2.00353426 11.75 2.5 C10.97269531 2.64308594 10.19539063 2.78617187 9.39453125 2.93359375 C8.26337891 3.13662109 8.26337891 3.13662109 7.109375 3.34375 C6.41811523 3.46943359 5.72685547 3.59511719 5.01464844 3.72460938 C3 4 3 4 -1 4 C-0.67 2.68 -0.34 1.36 0 0 Z " fill="#E2B585" transform="translate(29,98)"/>
<path d="M0 0 C0 0.99 0 1.98 0 3 C-4.29 3 -8.58 3 -13 3 C-12 1 -12 1 -10.4375 0.375 C-6.93601819 -0.16368951 -3.54193167 -0.05903219 0 0 Z " fill="#EBB43A" transform="translate(92,91)"/>
<path d="M0 0 C0.66 0 1.32 0 2 0 C2.33 5.28 2.66 10.56 3 16 C-1 16 -1 16 -3 15 C-2.505 14.38125 -2.01 13.7625 -1.5 13.125 C0.60494276 8.73970259 0.25075227 4.78286739 0 0 Z " fill="#FEFADC" transform="translate(197,104)"/>
<path d="M0 0 C0.99 0.99 1.98 1.98 3 3 C2.01 3.66 1.02 4.32 0 5 C-0.73606499 8.56769552 -0.73606499 8.56769552 -1 12 C-1.99 12 -2.98 12 -4 12 C-3.9129995 10.37399059 -3.8048219 8.74910322 -3.6875 7.125 C-3.62949219 6.22007813 -3.57148438 5.31515625 -3.51171875 4.3828125 C-3 2 -3 2 0 0 Z " fill="#385D87" transform="translate(158,114)"/>
<path d="M0 0 C5.52677733 -0.19392201 9.75614911 0.2520497 15 2 C15 2.66 15 3.32 15 4 C16.32 4 17.64 4 19 4 C19 4.99 19 5.98 19 7 C18.34 6.731875 17.68 6.46375 17 6.1875 C16.01 5.795625 15.02 5.40375 14 5 C13.05833984 4.62101562 13.05833984 4.62101562 12.09765625 4.234375 C8.07098072 2.65771126 4.3216783 1.54020979 0 1 C0 0.67 0 0.34 0 0 Z " fill="#FEF8C0" transform="translate(170,89)"/>
<path d="M0 0 C0.99 0 1.98 0 3 0 C3.66 2.31 4.32 4.62 5 7 C5.66 6.34 6.32 5.68 7 5 C7.66 6.32 8.32 7.64 9 9 C7.02 9 5.04 9 3 9 C0 3.375 0 3.375 0 0 Z " fill="#7E2B47" transform="translate(55,110)"/>
<path d="M0 0 C1.32 0.33 2.64 0.66 4 1 C4.41713515 2.43146378 4.8080497 3.87058886 5.1875 5.3125 C5.40792969 6.11300781 5.62835938 6.91351563 5.85546875 7.73828125 C6 10 6 10 4.55078125 11.79296875 C4.03902344 12.19128906 3.52726563 12.58960937 3 13 C2.34 12.67 1.68 12.34 1 12 C1.33 11.34 1.66 10.68 2 10 C2.25797575 6.04437178 2.09440189 3.40340307 0 0 Z " fill="#ECBA3A" transform="translate(178,104)"/>
<path d="M0 0 C1.67542976 0.28604898 3.34385343 0.61781233 5 1 C4.67 1.99 4.34 2.98 4 4 C-0.62 4.33 -5.24 4.66 -10 5 C-6 3 -6 3 -3.3125 1.9375 C-1.07564034 1.20552034 -1.07564034 1.20552034 0 0 Z " fill="#EFE0CE" transform="translate(16,101)"/>
<path d="M0 0 C3.375 0.3125 3.375 0.3125 7 1 C7.66 1.99 8.32 2.98 9 4 C7.68 4 6.36 4 5 4 C4.01 5.485 4.01 5.485 3 7 C2.34 7 1.68 7 1 7 C1.33 5.68 1.66 4.36 2 3 C1.34 2.67 0.68 2.34 0 2 C0 1.34 0 0.68 0 0 Z " fill="#F4D02B" transform="translate(176,91)"/>
<path d="M0 0 C-0.33 0.99 -0.66 1.98 -1 3 C-5.40914783 4.10228696 -9.48382401 4.07654536 -14 4 C-9.39033958 1.51787516 -5.27072485 0 0 0 Z " fill="#F39924" transform="translate(168,127)"/>
<path d="M0 0 C5.63470383 -0.5497272 8.38987758 1.04952165 13 4 C12.67 4.99 12.34 5.98 12 7 C8.04 5.02 4.08 3.04 0 1 C0 0.67 0 0.34 0 0 Z " fill="#F1C43B" transform="translate(165,97)"/>
<path d="M0 0 C0.53625 0.495 1.0725 0.99 1.625 1.5 C-3.50083611 1.60251672 -8.32497778 1.53590199 -13.375 0.5 C-13.375 0.17 -13.375 -0.16 -13.375 -0.5 C-4.20714286 -2.65714286 -4.20714286 -2.65714286 0 0 Z " fill="#E9BA56" transform="translate(82.375,93.5)"/>
<path d="M0 0 C-0.33 0.99 -0.66 1.98 -1 3 C-1 2.34 -1 1.68 -1 1 C-1.99 1 -2.98 1 -4 1 C-4 1.66 -4 2.32 -4 3 C-6.64 3 -9.28 3 -12 3 C-8.2391768 -0.7608232 -5.0273023 -0.25136512 0 0 Z " fill="#F7EECE" transform="translate(92,94)"/>
<path d="M0 0 C2.375 -0.125 2.375 -0.125 5 0 C5.66 0.66 6.32 1.32 7 2 C6.7578125 4.3828125 6.7578125 4.3828125 6.125 7.125 C5.92132813 8.03507812 5.71765625 8.94515625 5.5078125 9.8828125 C5.34023437 10.58148438 5.17265625 11.28015625 5 12 C4.67 12 4.34 12 4 12 C4 8.37 4 4.74 4 1 C2.68 0.67 1.36 0.34 0 0 Z " fill="#D4E5F0" transform="translate(94,76)"/>
<path d="M0 0 C-0.33 1.65 -0.66 3.3 -1 5 C-4.3 5 -7.6 5 -11 5 C-3.5 0 -3.5 0 0 0 Z " fill="#FDF2CF" transform="translate(190,123)"/>
<path d="M0 0 C0 0.33 0 0.66 0 1 C-1.65 1 -3.3 1 -5 1 C-5.33 1.99 -5.66 2.98 -6 4 C-6.99 4.495 -6.99 4.495 -8 5 C-8.65772428 8.02934491 -8.65772428 8.02934491 -9 11 C-9.33 11 -9.66 11 -10 11 C-10.48275862 4.72413793 -10.48275862 4.72413793 -8.375 1.5625 C-5.397402 -0.39644605 -3.49644963 -0.31785906 0 0 Z " fill="#DCF2F9" transform="translate(147,104)"/>
<path d="M0 0 C1.32 0 2.64 0 4 0 C2.75023244 3.65316671 2.32901247 4.78065836 -1 7 C-1.04254356 5.00045254 -1.04080783 2.99958364 -1 1 C-0.67 0.67 -0.34 0.34 0 0 Z " fill="#F1B435" transform="translate(193,114)"/>
<path d="M0 0 C3.93673644 1.31224548 6.22719294 2.91910327 9 6 C6.1875 5.8125 6.1875 5.8125 3 5 C1.125 2.4375 1.125 2.4375 0 0 Z " fill="#F2C831" transform="translate(185,95)"/>
<path d="M0 0 C0.66 0 1.32 0 2 0 C1.4140625 6.15234375 1.4140625 6.15234375 1 8 C0.01 8.495 0.01 8.495 -1 9 C-1.09765625 2.84765625 -1.09765625 2.84765625 -1 1 C-0.67 0.67 -0.34 0.34 0 0 Z " fill="#204568" transform="translate(136,106)"/>
<path d="M0 0 C0.33 0.66 0.66 1.32 1 2 C-3.75 6.875 -3.75 6.875 -6 8 C-6.66 7.34 -7.32 6.68 -8 6 C-7.4225 5.7525 -6.845 5.505 -6.25 5.25 C-3.6997003 3.83316683 -1.98214299 2.12372463 0 0 Z " fill="#DFEEF6" transform="translate(175,113)"/>
<path d="M0 0 C0.66 0.33 1.32 0.66 2 1 C1.67 2.98 1.34 4.96 1 7 C-0.32 7.33 -1.64 7.66 -3 8 C-1.125 2.25 -1.125 2.25 0 0 Z " fill="#863650" transform="translate(17,111)"/>
<path d="M0 0 C0.99 0.33 1.98 0.66 3 1 C3 3.31 3 5.62 3 8 C2.34 8 1.68 8 1 8 C0.67 5.36 0.34 2.72 0 0 Z " fill="#14406F" transform="translate(171,105)"/>
<path d="M0 0 C3.37503669 1.1858237 5.64722731 2.27573689 8 5 C7.67 5.66 7.34 6.32 7 7 C5.82780457 6.21654285 4.66236332 5.42297164 3.5 4.625 C2.8503125 4.18414062 2.200625 3.74328125 1.53125 3.2890625 C1.0259375 2.86367187 0.520625 2.43828125 0 2 C0 1.34 0 0.68 0 0 Z " fill="#FEF8CE" transform="translate(172,101)"/>
</svg>
